<?xml version="1.0" encoding="UTF-8"?>
<svg version="1.1" xmlns="http://www.w3.org/2000/svg" width="133" height="96">
<path d="M0 0 C4.01571255 1.60859504 6.70479614 4.43640365 9.68652344 7.45947266 C10.24306107 8.01571823 10.79959869 8.57196381 11.3730011 9.14506531 C13.20657442 10.98002905 15.03296672 12.82196931 16.859375 14.6640625 C18.13117525 15.93959389 19.40341853 17.21468367 20.67608643 18.48934937 C24.02106258 21.84195395 27.35998851 25.20052173 30.69769287 28.56036377 C34.10602831 31.98917456 37.52004745 35.41231573 40.93359375 38.8359375 C47.62797297 45.55175272 54.31597466 52.27388094 61 59 C57.375 63.875 57.375 63.875 54 65 C41.13 52.13 28.26 39.26 15 26 C19.66441101 38.53613849 19.66441101 38.53613849 24.6484375 50.9296875 C25.26695451 52.41795735 25.8854434 53.90623889 26.50390625 55.39453125 C27.45096859 57.66400084 28.39924199 59.93295939 29.34814453 62.20166016 C30.28449222 64.44313393 31.21665008 66.68631505 32.1484375 68.9296875 C32.43584808 69.61288055 32.72325867 70.29607361 33.01937866 70.99996948 C35 75.77390217 35 75.77390217 35 78 C32.58246217 79.14161509 30.69997324 80.02895204 27.99902344 79.91723633 C24.90526641 78.49769002 24.50277732 76.369636 23.265625 73.26171875 C22.77320312 72.04677734 22.28078125 70.83183594 21.7734375 69.58007812 C21.26522637 68.28270817 20.75741343 66.98518216 20.25 65.6875 C19.76273437 64.47642578 19.27546875 63.26535156 18.7734375 62.01757812 C17.167614 58.01757996 15.58445193 54.00851175 14 50 C11.36 43.4 8.72 36.8 6 30 C5.67 48.15 5.34 66.3 5 85 C2.36 85 -0.28 85 -3 85 C-3.33 66.85 -3.66 48.7 -4 30 C-9.41583786 43.08723619 -9.41583786 43.08723619 -14.82910156 56.17553711 C-15.516184 57.83451078 -16.20335289 59.49344865 -16.890625 61.15234375 C-17.41052002 62.41117371 -17.41052002 62.41117371 -17.94091797 63.69543457 C-20.21023426 69.16900637 -22.56738157 74.59703232 -25 80 C-26.98 80 -28.96 80 -31 80 C-31 79.34 -31 78.68 -31 78 C-31.66 78 -32.32 78 -33 78 C-31.06530137 71.97261214 -28.90575508 66.09083646 -26.49609375 60.23828125 C-26.17214127 59.44399216 -25.84818878 58.64970306 -25.51441956 57.8313446 C-24.49148403 55.32394777 -23.4648358 52.81809681 -22.4375 50.3125 C-21.40693753 47.79605513 -20.37725448 45.279264 -19.34986877 42.76152039 C-18.71405188 41.20361288 -18.07640872 39.646449 -17.43663025 38.09016418 C-15.80717639 34.10026619 -14.30946154 30.10983801 -13 26 C-13.73605469 26.73605469 -14.47210938 27.47210937 -15.23046875 28.23046875 C-27.48697917 40.48697917 -39.74348958 52.74348958 -52 65 C-54.46800047 63.84826645 -56.04783565 62.95216435 -58 61 C-57.90015323 56.67770455 -54.54289883 54.14346587 -51.65405273 51.31347656 C-51.09795319 50.75693893 -50.54185364 50.20040131 -49.96890259 49.6269989 C-48.13082172 47.79100642 -46.28234668 45.96586561 -44.43359375 44.140625 C-43.15641614 42.86904314 -41.87989969 41.59679689 -40.60401917 40.32391357 C-37.24536118 36.97670588 -33.87779136 33.63860517 -30.50830078 30.30230713 C-27.07108069 26.89578373 -23.64234523 23.48074415 -20.21289062 20.06640625 C-13.48354791 13.36923096 -6.74476188 6.68164379 0 0 Z " fill="#242424" transform="translate(62,1)"/>
<path d="" fill="#FFFFFF" transform="translate(0,0)"/>
<path d="" fill="#FFFFFF" transform="translate(0,0)"/>
<path d="" fill="#FFFFFF" transform="translate(0,0)"/>
<path d="" fill="#FFFFFF" transform="translate(0,0)"/>
<path d="" fill="#FFFFFF" transform="translate(0,0)"/>
<path d="" fill="#FFFFFF" transform="translate(0,0)"/>
<path d="" fill="#FFFFFF" transform="translate(0,0)"/>
<path d="" fill="#FFFFFF" transform="translate(0,0)"/>
<path d="" fill="#FFFFFF" transform="translate(0,0)"/>
<path d="" fill="#FFFFFF" transform="translate(0,0)"/>
<path d="" fill="#FFFFFF" transform="translate(0,0)"/>
<path d="" fill="#FFFFFF" transform="translate(0,0)"/>
<path d="" fill="#FFFFFF" transform="translate(0,0)"/>
<path d="" fill="#FFFFFF" transform="translate(0,0)"/>
<path d="" fill="#FFFFFF" transform="translate(0,0)"/>
<path d="" fill="#FFFFFF" transform="translate(0,0)"/>
<path d="" fill="#FFFFFF" transform="translate(0,0)"/>
<path d="" fill="#FFFFFF" transform="translate(0,0)"/>
<path d="" fill="#FFFFFF" transform="translate(0,0)"/>
<path d="" fill="#FFFFFF" transform="translate(0,0)"/>
<path d="" fill="#FFFFFF" transform="translate(0,0)"/>
<path d="" fill="#FFFFFF" transform="translate(0,0)"/>
<path d="" fill="#FFFFFF" transform="translate(0,0)"/>
<path d="" fill="#FFFFFF" transform="translate(0,0)"/>
<path d="" fill="#FFFFFF" transform="translate(0,0)"/>
<path d="" fill="#FFFFFF" transform="translate(0,0)"/>
<path d="" fill="#FFFFFF" transform="translate(0,0)"/>
<path d="" fill="#FFFFFF" transform="translate(0,0)"/>
<path d="" fill="#FFFFFF" transform="translate(0,0)"/>
<path d="" fill="#FFFFFF" transform="translate(0,0)"/>
<path d="" fill="#FFFFFF" transform="translate(0,0)"/>
<path d="" fill="#FFFFFF" transform="translate(0,0)"/>
<path d="" fill="#FFFFFF" transform="translate(0,0)"/>
<path d="" fill="#FFFFFF" transform="translate(0,0)"/>
<path d="" fill="#FFFFFF" transform="translate(0,0)"/>
<path d="" fill="#FFFFFF" transform="translate(0,0)"/>
<path d="" fill="#FFFFFF" transform="translate(0,0)"/>
<path d="" fill="#FFFFFF" transform="translate(0,0)"/>
<path d="" fill="#FFFFFF" transform="translate(0,0)"/>
<path d="" fill="#FFFFFF" transform="translate(0,0)"/>
<path d="" fill="#FFFFFF" transform="translate(0,0)"/>
<path d="" fill="#FFFFFF" transform="translate(0,0)"/>
<path d="" fill="#FFFFFF" transform="translate(0,0)"/>
<path d="" fill="#FFFFFF" transform="translate(0,0)"/>
<path d="" fill="#FFFFFF" transform="translate(0,0)"/>
<path d="" fill="#FFFFFF" transform="translate(0,0)"/>
<path d="" fill="#FFFFFF" transform="translate(0,0)"/>
<path d="" fill="#FFFFFF" transform="translate(0,0)"/>
<path d="" fill="#FFFFFF" transform="translate(0,0)"/>
<path d="" fill="#FFFFFF" transform="translate(0,0)"/>
<path d="" fill="#FFFFFF" transform="translate(0,0)"/>
<path d="" fill="#FFFFFF" transform="translate(0,0)"/>
<path d="" fill="#FFFFFF" transform="translate(0,0)"/>
<path d="" fill="#FFFFFF" transform="translate(0,0)"/>
<path d="" fill="#FFFFFF" transform="translate(0,0)"/>
<path d="" fill="#FFFFFF" transform="translate(0,0)"/>
<path d="" fill="#FFFFFF" transform="translate(0,0)"/>
<path d="" fill="#FFFFFF" transform="translate(0,0)"/>
</svg>
